<svg width="22" height="22" viewBox="0 0 22 22" fill="none" xmlns="http://www.w3.org/2000/svg">
<path d="M2.75 5.5H4.58333H19.25" stroke="#FF542F" stroke-width="2" stroke-linecap="round" stroke-linejoin="round"/>
<path d="M7.33333 5.49999V3.66666C7.33333 3.18043 7.52648 2.71412 7.8703 2.3703C8.21412 2.02648 8.68043 1.83333 9.16666 1.83333H12.8333C13.3196 1.83333 13.7859 2.02648 14.1297 2.3703C14.4735 2.71412 14.6667 3.18043 14.6667 3.66666V5.49999M17.4167 5.49999V18.3333C17.4167 18.8196 17.2235 19.2859 16.8797 19.6297C16.5359 19.9735 16.0696 20.1667 15.5833 20.1667H6.41666C5.93043 20.1667 5.46412 19.9735 5.1203 19.6297C4.77648 19.2859 4.58333 18.8196 4.58333 18.3333V5.49999H17.4167Z" stroke="#FF542F" stroke-width="2" stroke-linecap="round" stroke-linejoin="round"/>
<path d="M12.8333 10.0833V15.5833" stroke="#FF542F" stroke-width="2" stroke-linecap="round" stroke-linejoin="round"/>
<path d="M9.16667 10.0833V15.5833" stroke="#FF542F" stroke-width="2" stroke-linecap="round" stroke-linejoin="round"/>
</svg>
