<svg width="185" height="230" viewBox="0 0 185 230" fill="none" xmlns="http://www.w3.org/2000/svg">
<path d="M92 167C133.421 167 167 133.421 167 92C167 50.5786 133.421 17 92 17C50.5786 17 17 50.5786 17 92C17 133.421 50.5786 167 92 167Z" fill="url(#paint0_linear_66_101)"/>
<g filter="url(#filter0_d_66_101)">
<path d="M135 60H49C46.2386 60 44 62.2386 44 65V170C44 172.761 46.2386 175 49 175H135C137.761 175 140 172.761 140 170V65C140 62.2386 137.761 60 135 60Z" fill="white"/>
</g>
<path d="M82 75H56C54.3431 75 53 76.3431 53 78C53 79.6569 54.3431 81 56 81H82C83.6569 81 85 79.6569 85 78C85 76.3431 83.6569 75 82 75Z" fill="#B4DAFF"/>
<path d="M100 88H56C54.3431 88 53 89.3431 53 91C53 92.6569 54.3431 94 56 94H100C101.657 94 103 92.6569 103 91C103 89.3431 101.657 88 100 88Z" fill="#DFEAFB"/>
<path d="M82 102H56C54.3431 102 53 103.343 53 105C53 106.657 54.3431 108 56 108H82C83.6569 108 85 106.657 85 105C85 103.343 83.6569 102 82 102Z" fill="#B4DAFF"/>
<path d="M100 115H56C54.3431 115 53 116.343 53 118C53 119.657 54.3431 121 56 121H100C101.657 121 103 119.657 103 118C103 116.343 101.657 115 100 115Z" fill="#DFEAFB"/>
<path d="M82 129H56C54.3431 129 53 130.343 53 132C53 133.657 54.3431 135 56 135H82C83.6569 135 85 133.657 85 132C85 130.343 83.6569 129 82 129Z" fill="#B4DAFF"/>
<path d="M100 142H56C54.3431 142 53 143.343 53 145C53 146.657 54.3431 148 56 148H100C101.657 148 103 146.657 103 145C103 143.343 101.657 142 100 142Z" fill="#DFEAFB"/>
<g filter="url(#filter1_d_66_101)">
<path d="M135 9H49C46.2386 9 44 11.2386 44 14V44C44 46.7614 46.2386 49 49 49H135C137.761 49 140 46.7614 140 44V14C140 11.2386 137.761 9 135 9Z" fill="#1485FD"/>
</g>
<path d="M82 20H56C54.3431 20 53 21.3431 53 23C53 24.6569 54.3431 26 56 26H82C83.6569 26 85 24.6569 85 23C85 21.3431 83.6569 20 82 20Z" fill="#B4DAFF"/>
<path d="M100 33H56C54.3431 33 53 34.3431 53 36C53 37.6569 54.3431 39 56 39H100C101.657 39 103 37.6569 103 36C103 34.3431 101.657 33 100 33Z" fill="white"/>
<path d="M3.312 212.58V225H1.512V212.58H3.312ZM8.982 217.62V219.114H3.168V217.62H8.982ZM10.602 212.58V225H8.784V212.58H10.602ZM17.1518 216C18.5078 216 19.4858 216.246 20.0858 216.738C20.6978 217.218 21.0038 217.932 21.0038 218.88C21.0158 219.672 20.8418 220.284 20.4818 220.716C20.1338 221.148 19.5638 221.364 18.7718 221.364H13.6958V220.122H18.3218C18.7178 220.122 18.9758 219.996 19.0958 219.744C19.2158 219.492 19.2758 219.204 19.2758 218.88C19.2638 218.34 19.1018 217.956 18.7898 217.728C18.4898 217.5 17.9678 217.386 17.2238 217.386C16.6118 217.386 16.1318 217.476 15.7838 217.656C15.4358 217.836 15.1898 218.148 15.0458 218.592C14.9138 219.036 14.8478 219.66 14.8478 220.464C14.8478 221.364 14.9318 222.054 15.0998 222.534C15.2798 223.002 15.5618 223.326 15.9458 223.506C16.3418 223.686 16.8638 223.776 17.5118 223.776C17.9678 223.776 18.4778 223.758 19.0418 223.722C19.6178 223.674 20.1398 223.62 20.6078 223.56L20.7878 224.694C20.4998 224.814 20.1518 224.916 19.7438 225C19.3358 225.072 18.9158 225.126 18.4838 225.162C18.0518 225.198 17.6558 225.216 17.2958 225.216C16.2638 225.216 15.4358 225.06 14.8118 224.748C14.1878 224.436 13.7318 223.944 13.4438 223.272C13.1558 222.588 13.0118 221.694 13.0118 220.59C13.0118 219.438 13.1558 218.526 13.4438 217.854C13.7318 217.182 14.1818 216.708 14.7938 216.432C15.4058 216.144 16.1918 216 17.1518 216ZM27.0156 216C27.2916 216 27.5916 216.012 27.9156 216.036C28.2516 216.06 28.5936 216.102 28.9416 216.162C29.3016 216.222 29.6316 216.312 29.9316 216.432L29.7156 217.548C29.2956 217.512 28.8636 217.488 28.4196 217.476C27.9876 217.452 27.6156 217.44 27.3036 217.44C26.6316 217.44 26.0976 217.536 25.7016 217.728C25.3176 217.908 25.0416 218.226 24.8736 218.682C24.7056 219.138 24.6216 219.774 24.6216 220.59C24.6216 221.406 24.7056 222.048 24.8736 222.516C25.0416 222.984 25.3176 223.308 25.7016 223.488C26.0976 223.668 26.6316 223.758 27.3036 223.758C27.4836 223.758 27.7176 223.752 28.0056 223.74C28.2936 223.728 28.6056 223.71 28.9416 223.686C29.2776 223.662 29.6016 223.626 29.9136 223.578L30.0756 224.73C29.6316 224.898 29.1396 225.018 28.5996 225.09C28.0596 225.174 27.5256 225.216 26.9976 225.216C25.9656 225.216 25.1376 225.066 24.5136 224.766C23.9016 224.466 23.4576 223.98 23.1816 223.308C22.9056 222.636 22.7676 221.73 22.7676 220.59C22.7676 219.462 22.9056 218.562 23.1816 217.89C23.4696 217.218 23.9196 216.738 24.5316 216.45C25.1556 216.15 25.9836 216 27.0156 216ZM26.0256 225.972C26.5296 225.924 26.9316 225.924 27.2316 225.972C27.5436 226.02 27.7776 226.134 27.9336 226.314C28.0896 226.494 28.1556 226.77 28.1316 227.142C28.1196 227.658 27.9756 228.096 27.6996 228.456C27.4236 228.828 27.0576 229.092 26.6016 229.248C26.1456 229.404 25.6176 229.44 25.0176 229.356L25.2696 228.492C25.7496 228.504 26.1396 228.396 26.4396 228.168C26.7516 227.952 26.9136 227.658 26.9256 227.286C26.9496 227.082 26.8836 226.944 26.7276 226.872C26.5836 226.8 26.2896 226.758 25.8456 226.746L26.0256 225.972ZM40.9448 216C42.0368 216 42.8408 216.354 43.3568 217.062C43.8728 217.758 44.1308 218.928 44.1308 220.572C44.1308 221.316 44.0648 221.976 43.9328 222.552C43.8128 223.128 43.6028 223.614 43.3028 224.01C43.0028 224.406 42.5948 224.706 42.0788 224.91C41.5748 225.114 40.9328 225.216 40.1528 225.216C39.8528 225.216 39.5228 225.204 39.1628 225.18C38.8028 225.156 38.4368 225.114 38.0648 225.054C37.6928 225.006 37.3328 224.946 36.9848 224.874C36.6368 224.79 36.3188 224.688 36.0308 224.568L37.4168 223.434C37.7288 223.53 38.0348 223.608 38.3348 223.668C38.6468 223.728 38.9528 223.77 39.2528 223.794C39.5648 223.806 39.8528 223.812 40.1168 223.812C40.6568 223.788 41.0828 223.68 41.3948 223.488C41.7188 223.296 41.9528 222.966 42.0968 222.498C42.2528 222.018 42.3308 221.376 42.3308 220.572C42.3308 219.792 42.2708 219.18 42.1508 218.736C42.0428 218.28 41.8388 217.956 41.5388 217.764C41.2508 217.56 40.8368 217.458 40.2968 217.458C39.8408 217.458 39.4028 217.584 38.9828 217.836C38.5748 218.076 38.1068 218.4 37.5788 218.808L37.4528 217.728C37.8008 217.356 38.1608 217.044 38.5328 216.792C38.9048 216.528 39.2948 216.33 39.7028 216.198C40.1108 216.066 40.5248 216 40.9448 216ZM37.7768 212.4V215.604C37.7768 215.976 37.7648 216.33 37.7408 216.666C37.7168 216.99 37.6628 217.314 37.5788 217.638L37.7588 217.89L37.7768 224.658L36.0308 224.568V212.4H37.7768ZM48.2023 216.216V225H46.4923V216.216H48.2023ZM47.7523 212.454C48.1003 212.454 48.2743 212.628 48.2743 212.976V214.002C48.2743 214.35 48.1003 214.524 47.7523 214.524H46.9423C46.5943 214.524 46.4203 214.35 46.4203 214.002V212.976C46.4203 212.628 46.5943 212.454 46.9423 212.454H47.7523ZM52.323 216.216L52.539 217.908L52.701 218.16V225H50.973V216.216H52.323ZM56.625 216L56.445 217.62H55.887C55.395 217.62 54.891 217.716 54.375 217.908C53.871 218.1 53.253 218.376 52.521 218.736L52.395 217.674C53.031 217.146 53.673 216.738 54.321 216.45C54.981 216.15 55.617 216 56.229 216H56.625ZM64.0027 213.642V222.498C64.0027 222.906 64.0867 223.2 64.2547 223.38C64.4347 223.548 64.7347 223.632 65.1547 223.632H66.4507L66.6487 224.91C66.4447 224.97 66.2107 225.018 65.9467 225.054C65.6947 225.09 65.4367 225.114 65.1727 225.126C64.9207 225.15 64.7167 225.162 64.5607 225.162C63.8167 225.162 63.2467 224.958 62.8507 224.55C62.4547 224.142 62.2567 223.554 62.2567 222.786V213.642H64.0027ZM66.7387 216.216V217.512H60.6727V216.306L62.4007 216.216H66.7387ZM72.746 216C73.418 216 73.982 216.09 74.438 216.27C74.906 216.438 75.254 216.732 75.482 217.152C75.722 217.572 75.842 218.148 75.842 218.88V225H74.474L74.204 223.092L74.096 222.876V218.88C74.096 218.364 73.976 217.992 73.736 217.764C73.496 217.536 73.04 217.422 72.368 217.422C71.912 217.422 71.336 217.446 70.64 217.494C69.956 217.542 69.278 217.59 68.606 217.638L68.444 216.396C68.852 216.324 69.302 216.258 69.794 216.198C70.298 216.138 70.808 216.09 71.324 216.054C71.84 216.018 72.314 216 72.746 216ZM75.05 219.582L75.032 220.806L70.892 220.824C70.484 220.836 70.196 220.944 70.028 221.148C69.872 221.34 69.794 221.61 69.794 221.958V222.498C69.794 222.93 69.896 223.248 70.1 223.452C70.316 223.644 70.652 223.74 71.108 223.74C71.444 223.74 71.816 223.68 72.224 223.56C72.644 223.428 73.064 223.236 73.484 222.984C73.904 222.72 74.282 222.39 74.618 221.994V223.128C74.498 223.296 74.318 223.5 74.078 223.74C73.838 223.968 73.544 224.19 73.196 224.406C72.86 224.622 72.482 224.802 72.062 224.946C71.654 225.09 71.204 225.162 70.712 225.162C70.184 225.162 69.716 225.072 69.308 224.892C68.912 224.7 68.6 224.424 68.372 224.064C68.144 223.692 68.03 223.242 68.03 222.714V221.76C68.03 221.076 68.246 220.542 68.678 220.158C69.122 219.774 69.734 219.582 70.514 219.582H75.05ZM83.6312 216C84.7112 216 85.4852 216.396 85.9532 217.188C86.4212 217.98 86.6552 219.138 86.6552 220.662C86.6552 221.802 86.5352 222.708 86.2952 223.38C86.0552 224.04 85.6892 224.514 85.1972 224.802C84.7172 225.078 84.0992 225.216 83.3432 225.216C82.7552 225.216 82.1792 225.138 81.6152 224.982C81.0632 224.814 80.5292 224.562 80.0132 224.226L80.1212 223.254C80.6492 223.41 81.1172 223.536 81.5252 223.632C81.9452 223.728 82.3892 223.776 82.8572 223.776C83.3492 223.776 83.7392 223.692 84.0272 223.524C84.3272 223.356 84.5432 223.044 84.6752 222.588C84.8072 222.132 84.8732 221.49 84.8732 220.662C84.8732 219.846 84.8072 219.21 84.6752 218.754C84.5552 218.286 84.3572 217.956 84.0812 217.764C83.8172 217.56 83.4632 217.458 83.0192 217.458C82.5632 217.458 82.1132 217.566 81.6692 217.782C81.2252 217.986 80.7152 218.31 80.1392 218.754L79.9592 217.674C80.2592 217.338 80.6072 217.044 81.0032 216.792C81.4112 216.54 81.8432 216.348 82.2992 216.216C82.7552 216.072 83.1992 216 83.6312 216ZM79.8872 216.216L80.0672 217.998L80.1932 218.232V223.884L80.1212 224.1C80.1572 224.436 80.1812 224.766 80.1932 225.09C80.2052 225.414 80.2052 225.756 80.1932 226.116V228.582H78.4652V216.216H79.8872ZM91.983 216C92.367 216 92.781 216.012 93.225 216.036C93.669 216.06 94.107 216.09 94.539 216.126C94.983 216.162 95.385 216.21 95.745 216.27L95.619 217.494C95.055 217.47 94.491 217.452 93.927 217.44C93.375 217.416 92.823 217.404 92.271 217.404C91.743 217.392 91.329 217.404 91.029 217.44C90.729 217.476 90.513 217.566 90.381 217.71C90.249 217.854 90.183 218.1 90.183 218.448C90.183 218.868 90.285 219.144 90.489 219.276C90.705 219.408 91.023 219.522 91.443 219.618L93.945 220.194C94.653 220.374 95.175 220.638 95.511 220.986C95.847 221.334 96.015 221.886 96.015 222.642C96.015 223.362 95.877 223.908 95.601 224.28C95.337 224.64 94.923 224.88 94.359 225C93.795 225.132 93.081 225.198 92.217 225.198C91.893 225.198 91.407 225.186 90.759 225.162C90.123 225.138 89.421 225.06 88.653 224.928L88.779 223.722C89.055 223.734 89.355 223.746 89.679 223.758C90.003 223.77 90.345 223.776 90.705 223.776C91.077 223.776 91.449 223.776 91.821 223.776C92.469 223.776 92.973 223.752 93.333 223.704C93.705 223.644 93.963 223.536 94.107 223.38C94.263 223.212 94.341 222.966 94.341 222.642C94.341 222.246 94.215 221.982 93.963 221.85C93.723 221.706 93.393 221.586 92.973 221.49L90.507 220.914C90.003 220.794 89.601 220.632 89.301 220.428C89.013 220.212 88.803 219.948 88.671 219.636C88.551 219.312 88.491 218.91 88.491 218.43C88.491 217.758 88.611 217.248 88.851 216.9C89.091 216.54 89.463 216.3 89.967 216.18C90.483 216.048 91.155 215.988 91.983 216ZM91.317 225.954C91.821 225.906 92.223 225.906 92.523 225.954C92.835 226.002 93.069 226.116 93.225 226.296C93.381 226.476 93.447 226.752 93.423 227.124C93.411 227.64 93.267 228.078 92.991 228.438C92.715 228.81 92.349 229.074 91.893 229.23C91.437 229.386 90.909 229.422 90.309 229.338L90.561 228.474C91.041 228.486 91.431 228.378 91.731 228.15C92.043 227.934 92.205 227.64 92.217 227.268C92.241 227.064 92.175 226.926 92.019 226.854C91.875 226.782 91.581 226.74 91.137 226.728L91.317 225.954ZM100.006 216.216V225H98.2599V216.216H100.006ZM104.108 216.216L104.324 217.908L104.486 218.16V225H102.758V216.216H104.108ZM108.41 216L108.23 217.62H107.672C107.18 217.62 106.676 217.716 106.16 217.908C105.656 218.1 105.038 218.376 104.306 218.736L104.18 217.674C104.816 217.146 105.458 216.738 106.106 216.45C106.766 216.15 107.402 216 108.014 216H108.41ZM111.889 216.216V225H110.143V216.216H111.889ZM118.259 216C118.535 216 118.847 216.012 119.195 216.036C119.555 216.06 119.921 216.102 120.293 216.162C120.665 216.21 121.025 216.276 121.373 216.36C121.721 216.432 122.039 216.516 122.327 216.612L120.905 217.764C120.617 217.68 120.311 217.608 119.987 217.548C119.675 217.488 119.369 217.446 119.069 217.422C118.781 217.398 118.511 217.392 118.259 217.404C117.707 217.416 117.263 217.518 116.927 217.71C116.603 217.902 116.369 218.238 116.225 218.718C116.081 219.186 116.009 219.858 116.009 220.734C116.009 221.766 116.135 222.522 116.387 223.002C116.651 223.482 117.149 223.722 117.881 223.722C118.409 223.722 118.889 223.614 119.321 223.398C119.753 223.182 120.239 222.888 120.779 222.516L120.995 223.56C120.635 223.884 120.251 224.172 119.843 224.424C119.447 224.676 119.033 224.874 118.601 225.018C118.181 225.162 117.737 225.234 117.269 225.234C116.237 225.234 115.469 224.868 114.965 224.136C114.473 223.392 114.227 222.228 114.227 220.644C114.227 219.888 114.287 219.222 114.407 218.646C114.539 218.07 114.755 217.584 115.055 217.188C115.367 216.792 115.781 216.498 116.297 216.306C116.813 216.102 117.467 216 118.259 216ZM120.581 216.558L122.327 216.612V228.582H120.581L120.563 225.63C120.563 225.246 120.575 224.898 120.599 224.586C120.635 224.262 120.689 223.932 120.761 223.596L120.581 223.344V216.558ZM136.572 216.216L133.116 225.414C132.972 225.81 132.786 226.2 132.558 226.584C132.342 226.968 132.072 227.316 131.748 227.628C131.424 227.952 131.04 228.21 130.596 228.402C130.164 228.594 129.66 228.69 129.084 228.69L128.922 227.592C129.642 227.364 130.194 227.064 130.578 226.692C130.974 226.32 131.286 225.864 131.514 225.324L131.964 224.244C132.06 223.992 132.156 223.716 132.252 223.416C132.348 223.104 132.438 222.834 132.522 222.606L134.7 216.216H136.572ZM129.372 216.216L131.586 222.606C131.646 222.786 131.7 222.972 131.748 223.164C131.808 223.344 131.856 223.53 131.892 223.722H132.324L131.766 225H131.262C131.118 225 130.992 224.964 130.884 224.892C130.776 224.808 130.698 224.694 130.65 224.55L127.518 216.216H129.372ZM141.906 216C142.938 216 143.76 216.15 144.372 216.45C144.996 216.75 145.44 217.242 145.704 217.926C145.98 218.598 146.118 219.492 146.118 220.608C146.118 221.736 145.98 222.642 145.704 223.326C145.44 223.998 144.996 224.484 144.372 224.784C143.76 225.084 142.938 225.234 141.906 225.234C140.886 225.234 140.064 225.084 139.44 224.784C138.828 224.484 138.384 223.998 138.108 223.326C137.832 222.642 137.694 221.736 137.694 220.608C137.694 219.492 137.832 218.598 138.108 217.926C138.384 217.242 138.828 216.75 139.44 216.45C140.064 216.15 140.886 216 141.906 216ZM141.906 217.404C141.306 217.404 140.832 217.5 140.484 217.692C140.136 217.884 139.89 218.214 139.746 218.682C139.602 219.138 139.53 219.78 139.53 220.608C139.53 221.436 139.602 222.084 139.746 222.552C139.89 223.02 140.136 223.35 140.484 223.542C140.832 223.722 141.306 223.812 141.906 223.812C142.506 223.812 142.98 223.722 143.328 223.542C143.688 223.35 143.94 223.02 144.084 222.552C144.228 222.084 144.3 221.436 144.3 220.608C144.3 219.78 144.228 219.138 144.084 218.682C143.94 218.214 143.688 217.884 143.328 217.692C142.98 217.5 142.506 217.404 141.906 217.404ZM155.919 216.216L153.219 220.482L156.135 225H154.281L151.455 220.482L154.065 216.216H155.919ZM149.295 216.216L151.905 220.482L149.097 225H147.243L150.141 220.482L147.441 216.216H149.295ZM152.715 219.798V221.076H150.663V219.798H152.715ZM160.624 216C161.212 216 161.788 216.078 162.352 216.234C162.916 216.378 163.45 216.618 163.954 216.954L163.846 217.962C163.318 217.794 162.844 217.662 162.424 217.566C162.016 217.47 161.572 217.422 161.092 217.422C160.612 217.422 160.222 217.506 159.922 217.674C159.634 217.842 159.418 218.154 159.274 218.61C159.142 219.066 159.076 219.714 159.076 220.554C159.076 221.382 159.142 222.03 159.274 222.498C159.406 222.954 159.616 223.272 159.904 223.452C160.192 223.632 160.558 223.722 161.002 223.722C161.338 223.722 161.644 223.68 161.92 223.596C162.196 223.512 162.484 223.374 162.784 223.182C163.084 222.99 163.438 222.75 163.846 222.462L163.99 223.578C163.534 224.034 163 224.424 162.388 224.748C161.788 225.06 161.122 225.216 160.39 225.216C159.286 225.216 158.494 224.826 158.014 224.046C157.534 223.254 157.294 222.096 157.294 220.572C157.294 219.42 157.414 218.514 157.654 217.854C157.906 217.182 158.278 216.708 158.77 216.432C159.262 216.144 159.88 216 160.624 216ZM165.376 212.4V225H164.008L163.81 223.452L163.63 223.308V217.332L163.738 217.062C163.69 216.726 163.66 216.396 163.648 216.072C163.636 215.748 163.63 215.406 163.63 215.046V212.4H165.376ZM169.753 216.216V222.3C169.753 222.828 169.855 223.2 170.059 223.416C170.263 223.632 170.605 223.74 171.085 223.74C171.553 223.74 172.015 223.632 172.471 223.416C172.939 223.2 173.503 222.882 174.163 222.462L174.361 223.596C173.689 224.136 173.029 224.544 172.381 224.82C171.745 225.096 171.097 225.234 170.437 225.234C168.829 225.234 168.025 224.43 168.025 222.822V216.216H169.753ZM175.729 216.216V225H174.325L174.163 223.326L173.983 223.056V216.216H175.729ZM179.764 216.216L179.98 217.908L180.142 218.16V225H178.414V216.216H179.764ZM184.066 216L183.886 217.62H183.328C182.836 217.62 182.332 217.716 181.816 217.908C181.312 218.1 180.694 218.376 179.962 218.736L179.836 217.674C180.472 217.146 181.114 216.738 181.762 216.45C182.422 216.15 183.058 216 183.67 216H184.066Z" fill="#858585"/>
<defs>
<filter id="filter0_d_66_101" x="38" y="51" width="108" height="127" filterUnits="userSpaceOnUse" color-interpolation-filters="sRGB">
<feFlood flood-opacity="0" result="BackgroundImageFix"/>
<feColorMatrix in="SourceAlpha" type="matrix" values="0 0 0 0 0 0 0 0 0 0 0 0 0 0 0 0 0 0 127 0" result="hardAlpha"/>
<feOffset dy="-3"/>
<feGaussianBlur stdDeviation="3"/>
<feColorMatrix type="matrix" values="0 0 0 0 0.788235 0 0 0 0 0.803922 0 0 0 0 0.85098 0 0 0 0.349 0"/>
<feBlend mode="normal" in2="BackgroundImageFix" result="effect1_dropShadow_66_101"/>
<feBlend mode="normal" in="SourceGraphic" in2="effect1_dropShadow_66_101" result="shape"/>
</filter>
<filter id="filter1_d_66_101" x="38" y="0" width="108" height="52" filterUnits="userSpaceOnUse" color-interpolation-filters="sRGB">
<feFlood flood-opacity="0" result="BackgroundImageFix"/>
<feColorMatrix in="SourceAlpha" type="matrix" values="0 0 0 0 0 0 0 0 0 0 0 0 0 0 0 0 0 0 127 0" result="hardAlpha"/>
<feOffset dy="-3"/>
<feGaussianBlur stdDeviation="3"/>
<feColorMatrix type="matrix" values="0 0 0 0 0.788235 0 0 0 0 0.803922 0 0 0 0 0.85098 0 0 0 0.349 0"/>
<feBlend mode="normal" in2="BackgroundImageFix" result="effect1_dropShadow_66_101"/>
<feBlend mode="normal" in="SourceGraphic" in2="effect1_dropShadow_66_101" result="shape"/>
</filter>
<linearGradient id="paint0_linear_66_101" x1="92" y1="17" x2="92" y2="167" gradientUnits="userSpaceOnUse">
<stop stop-color="#E3ECFA"/>
<stop offset="1" stop-color="#DAE7FF"/>
</linearGradient>
</defs>
</svg>
