<svg width="42" height="42" viewBox="0 0 42 42" fill="none" xmlns="http://www.w3.org/2000/svg">
<path d="M10.5 6.29999C9.38609 6.29999 8.31781 6.74249 7.53015 7.53014C6.7425 8.31779 6.3 9.38608 6.3 10.5V31.5C6.3 32.6139 6.7425 33.6822 7.53015 34.4698C8.31781 35.2575 9.38609 35.7 10.5 35.7H31.5C32.6139 35.7 33.6822 35.2575 34.4699 34.4698C35.2575 33.6822 35.7 32.6139 35.7 31.5V10.5C35.7 9.38608 35.2575 8.31779 34.4699 7.53014C33.6822 6.74249 32.6139 6.29999 31.5 6.29999H10.5ZM22.05 13.65V19.95H28.35C28.6285 19.95 28.8956 20.0606 29.0925 20.2575C29.2894 20.4544 29.4 20.7215 29.4 21C29.4 21.2785 29.2894 21.5455 29.0925 21.7425C28.8956 21.9394 28.6285 22.05 28.35 22.05H22.05V28.35C22.05 28.6285 21.9394 28.8955 21.7425 29.0925C21.5456 29.2894 21.2785 29.4 21 29.4C20.7215 29.4 20.4545 29.2894 20.2575 29.0925C20.0606 28.8955 19.95 28.6285 19.95 28.35V22.05H13.65C13.3715 22.05 13.1045 21.9394 12.9075 21.7425C12.7106 21.5455 12.6 21.2785 12.6 21C12.6 20.7215 12.7106 20.4544 12.9075 20.2575C13.1045 20.0606 13.3715 19.95 13.65 19.95H19.95V13.65C19.95 13.3715 20.0606 13.1044 20.2575 12.9075C20.4545 12.7106 20.7215 12.6 21 12.6C21.2785 12.6 21.5456 12.7106 21.7425 12.9075C21.9394 13.1044 22.05 13.3715 22.05 13.65V13.65Z" fill="#00A3FF"/>
</svg>
